          PLEASE BE PASSION BECAUSE MY UPLOAD SPEED IS SLO (150KBPS)
==================================================================================

-::Resident Evil Afterlife (2010) Audio-Hindi5.1ch(3d-SBS) 1080p BDRip-BY-GPSOFT::-

==================================================================================

Resident Evil Afterlife (3d-SBS) BDRip-1080p FOR-ALL 3DTV & 3D-HD PROJECTOR AND 3D-LPATOP TO....

===========================ENGLISH AUDIO IS SEPARATE============================== 

-::::TECH INFO::::-

Complete name:- Resident Evil Afterlife (2010) Audio-Hindi 5.1ch (3d-SBS) 1080p BDRip-BY-GPSOFT.mkv
Format : Matroska
Format version : Version 2
File size : 3.48 GiB
Duration : 1h 36mn
Overall bit rate mode : Variable
Overall bit rate : 5 139 Kbps
Movie name : Resident Evil Afterlife (2010) Audio-Hindi 5.1ch (3d-SBS) 1080p BDRip-BY-GPSOFT
Encoded date : UTC 2011-12-26 02:24:48
Writing application : mkvmerge v5.1.0 ('And so it goes') built on Nov 28 2011 23:58:28
Writing library : libebml v1.2.3 + libmatroska v1.3.0

Video
ID : 1
Format : AVC
Format/Info : Advanced Video Codec
Format profile : High@L4.1
Format settings, CABAC : Yes
Format settings, ReFrames : 3 frames
Muxing mode : Header stripping
Codec ID : V_MPEG4/ISO/AVC
Duration : 1h 36mn
Bit rate mode : Variable
Bit rate : 4 500 Kbps
Maximum bit rate : 40.0 Mbps
Width : 1 920 pixels
Height : 1 080 pixels
Display aspect ratio : 16:9
Frame rate : 23.976 fps
Color space : YUV
Chroma subsampling : 4:2:0
Bit depth : 8 bits
Scan type : Progressive
Bits/(Pixel*Frame) : 0.091
Stream size : 2.98 GiB (86%)
Title : Resident Evil Afterlife (2010) Audio-Hindi 5.1ch (3d-SBS) 1080p BDRip-BY-GPSOFT
Language : English
Default : Yes
Forced : No
Color primaries : BT.709-5, BT.1361, IEC 61966-2-4, SMPTE RP177
Transfer characteristics : BT.709-5, BT.1361
Matrix coefficients : BT.709-5, BT.1361, IEC 61966-2-4 709, SMPTE RP177

Audio
ID : 2
Format : AC-3
Format/Info : Audio Coding 3
Mode extension : CM (complete main)
Muxing mode : Header stripping
Codec ID : A_AC3
Duration : 1h 36mn
Bit rate mode : Constant
Bit rate : 640 Kbps
Channel(s) : 6 channels
Channel positions : Front: L C R, Side: L R, LFE
Sampling rate : 48.0 KHz
Bit depth : 16 bits
Compression mode : Lossy
Stream size : 443 MiB (12%)
Title : HINDI-DD5.1CH (GPSOFT)
Language : Hindi
Default : Yes
Forced : No

***********************************************************************************
                              CLICK FOR SAMPLE CLIP

           SAMPLE CLIP 20MB :-


***********************************************************************************

                        
             PLEASE SAY THANKS IF U LIKE THIS POST TO ALIVE TORRENT

                       AND SEED 24HR AFTER 100% DOWNLOAD PLEASE 

